<?xml version="1.0" encoding="UTF-8"?>
<svg id="Layer_1" xmlns="http://www.w3.org/2000/svg" xmlns:xlink="http://www.w3.org/1999/xlink" viewBox="0 0 500 500">
  <defs>
    <style>
      .cls-1 {
        fill: url(#radial-gradient);
      }
    </style>
    <radialGradient id="radial-gradient" cx="250" cy="250" fx="250" fy="47.73" r="259.14" gradientUnits="userSpaceOnUse">
      <stop offset="0" stop-color="#b84298"/>
      <stop offset=".13" stop-color="#b14095"/>
      <stop offset=".32" stop-color="#9f3c90"/>
      <stop offset=".55" stop-color="#803586"/>
      <stop offset=".79" stop-color="#572c79"/>
      <stop offset=".91" stop-color="#412872"/>
    </radialGradient>
  </defs>
  <path class="cls-1" d="M296.13,358.37l23.3-8.95v72.1l-68.99,25.99L25.24,361.2,227.27,83.46v319.5l-150.58-58.25,115.55-159.25v170.92l-66.03-25.28,35.92-49.57v25.25l-10.69,13.68,20.42,8.73v-77.71l-62.15,85.44,94.23,36.89v-226.21L55.38,351.5l195.06,76.72.06-103.77,23.29-9.18v103.28l22.35-8.79v-51.39ZM342.74,411.73l132.02-50.57-11.55-15.51-97.19,36.95v-24.36l83.46-32.96-53.34-73.79h-100.02v81.55l23.3-8.73v-46.6h23.32s0,37.87,0,37.87l23.28-8.74v-29.14l24.26.15,25.11,34.84-72.65,28.19v70.84ZM273.78,251.49h-23.35v47.66l23.35-9.8v-37.86ZM273.78,83.54l-23.29-31.06-.06,132.08h23.35v-101.02ZM304.96,228.15l-15.56-22.27h-38.97l.06,22.27h54.47ZM378.6,228.23l-10.74-15.53-26.13-.05-30.18-42.65.07-11.76,14.6,20.35,16.53.07-46.62-63.09v68.93l32.06,43.74h50.42Z"/>
</svg>